<svg height="33" width="37" xmlns="http://www.w3.org/2000/svg"><g fill="none" fill-rule="evenodd" transform="translate(.822 .25)"><path d="m8.874 32.205-8.865-16.06 8.865-16.06h17.73l8.865 16.06-8.865 16.06z" fill="#95c9a1"/><path d="m23.096 7.674c-.28-.278-.688-.289-.736-.289h-9.37a.865.865 0 0 0 -.873.856v2.429c0 3.416 2.177 6.245 5.055 6.574.007.002.084.012.21.019v6.773h-2.13a.354.354 0 0 0 -.357.35c0 .193.16.348.357.348h4.977a.353.353 0 0 0 .358-.348c0-.193-.16-.35-.358-.35h-2.132v-6.784c.087-.007.174-.011.272-.021 2.744-.368 4.789-3.153 4.974-6.78v-2.151a.847.847 0 0 0 -.247-.626zm-10.136 2.14v-1.574c0-.089.071-.156.158-.156l9.365-.001c.183.005.275.076.273.21v1.524z" fill="#fff"/></g></svg>