<svg width="37" height="33" xmlns="http://www.w3.org/2000/svg"><g id="Welcome" stroke="none" stroke-width="1" fill="none" fill-rule="evenodd"><g id="Trust-Page" transform="translate(-971 -3454)"><g id="Group" transform="translate(971.822 3454.25)"><path id="Shape" fill="#95C9A1" d="M8.874 32.205L.009 16.145 8.874.085h17.73l8.865 16.06-8.865 16.06z"/><path d="M23.096 7.674c-.28-.278-.688-.289-.736-.289h-9.37a.865.865 0 0 0-.873.856v2.429c0 3.416 2.177 6.245 5.055 6.574.007.002.084.012.21.019v6.773h-2.13a.354.354 0 0 0-.357.35c0 .193.16.348.357.348h4.977a.353.353 0 0 0 .358-.348c0-.193-.16-.35-.358-.35h-2.132v-6.784c.087-.007.174-.011.272-.021 2.744-.368 4.789-3.153 4.974-6.78V8.3a.847.847 0 0 0-.247-.626zM12.96 9.814V8.24c0-.089.071-.156.158-.156l9.365-.001c.183.005.275.076.273.21v1.524l-9.796-.003z" id="Shape" fill="#FFF"/></g></g></g></svg>